Simulation
nRows=16
nColumns=15
endheader
time  TH_x TH_y TH_z SC_y  SC_z  SC_x  AC_y  AC_z  AC_x  GH_y  GH_z  GH_yy  EL_x  PS_y
0.0  0.000000  0.000000  0.000000  -30.8750783332998  -9.939852118368261  -1.8316280610822548  33.07512558398636  -2.7779597343693108  22.82086171051237  -45.29145799883821  36.055131678332515  80.25254112132151  23.801842992784668  0.000000
0.03  0.000000  0.000000  0.000000  -33.047698930352496  -12.593859357014466  -0.11654987738827965  34.74551512071626  -1.8645589018909334  21.076492776490436  -47.91001403480203  37.532931781384306  80.37990482804577  23.099410646378598  0.000000
0.06  0.000000  0.000000  0.000000  -33.22074774102412  -12.695230647267188  1.7758479218388903  35.54813491786817  -2.9049770751388135  19.991989618776213  -49.23322134270734  38.08640624889648  81.4950622519897  22.444035105893153  0.000000
0.09  0.000000  0.000000  0.000000  -33.46334398248746  -13.335683229830527  2.539116962621856  35.7637962783937  -2.875100767289176  19.136558523175648  -48.987782561156735  38.296590481681385  82.1760582773021  22.98384890779017  0.000000
0.12  0.000000  0.000000  0.000000  -33.54778902628947  -13.51029189501665  2.929713112173233  35.961991969927745  -2.984929052715266  18.858608237334437  -48.71017871910671  38.53402593313804  82.47225179576353  23.513342111554095  0.000000
0.15  0.000000  0.000000  0.000000  -33.70381352431648  -13.554333932025527  3.0872573229754905  36.09049547783591  -2.997341260866845  18.779745906308374  -48.17032507419809  38.655056425748434  82.32701043801828  23.74531419889161  0.000000
0.18  0.000000  0.000000  0.000000  -33.797770092291266  -13.545441956329235  3.111553471210735  36.08935019321228  -2.9307798529584637  18.75485804996508  -47.35287621741706  38.80964323977043  81.60511229918538  23.871999474613393  0.000000
0.21  0.000000  0.000000  0.000000  -33.89267617895287  -13.480013007686726  3.1144343365574634  36.123006899917215  -2.9357021699630352  18.800047505433714  -46.148175689216096  39.19292115211487  80.35555570964956  23.894948458694163  0.000000
0.24  0.000000  0.000000  0.000000  -33.920587275609144  -13.366032880207348  3.1147344548657965  36.0433208590264  -2.944508279756895  18.815037959333836  -44.5256961341015  39.729146766653734  78.49287985389203  24.014227049814416  0.000000
0.27  0.000000  0.000000  0.000000  -33.95669628225135  -13.274873151693352  3.201086117745204  36.010128638125465  -3.0108510458326703  18.772039218693166  -42.3955330995228  40.48620905977973  75.99489597253533  24.150137723201944  0.000000
0.3  0.000000  0.000000  0.000000  -34.00696101140817  -13.231824048935511  3.3957380467705067  35.994528990311444  -3.1214326025910832  18.625378066608878  -39.79262561776593  41.45232936959552  72.81407215262935  24.37021955206769  0.000000
0.32999999999999996  0.000000  0.000000  0.000000  -34.0802110054103  -13.240291317338357  3.753156714144956  36.04129109583754  -3.2767626031548462  18.364126497985634  -36.88740095819307  42.69073744362707  69.11932965675389  24.649959353684462  0.000000
0.36  0.000000  0.000000  0.000000  -34.08936729574388  -13.251673786052036  4.181495889431785  36.061563322193585  -3.5076242849398116  18.031499893587625  -33.82832560089197  44.35106076921728  65.1230889628501  25.080204684686358  0.000000
0.39  0.000000  0.000000  0.000000  -34.06343853153022  -13.174988430666934  4.653624440801126  35.995536873802926  -3.813986767207241  17.677156222883617  -30.72459267000658  46.37488601607182  61.138157007104155  25.53883414476045  0.000000
0.42  0.000000  0.000000  0.000000  -34.0043923771815  -12.973169057872404  5.084934070703034  35.792938359757095  -4.18654146075317  17.321388873962523  -27.590982680388606  48.63817222174301  57.21970173429918  25.898102524690472  0.000000
0.44999999999999996  0.000000  0.000000  0.000000  -33.997725782273655  -12.661574517972316  5.512429461377755  35.51014287390461  -4.584542478029097  16.96763207966494  -24.379108883835876  50.93551235455386  53.43603087235904  25.975192568712806  0.000000
